# xmcd
#
# Track frame offsets:
#	150
#	13703
#	25738
#	42821
#	52687
#	62972
#	81776
#	94612
#	107806
#	120132
#
# Disc length: 1899 seconds
#
# Revision: 0
# Processed by: cddbd v1.5.2PL0 Copyright (c) Steve Scherf et al.
# Submitted via: dBpowerAMP V4.0
#
DISCID=6b07690a
DTITLE=Lucas Hudgins - The World Left Is Mine
DYEAR=1900
DGENRE=
TTITLE0=Three Chairs
TTITLE1=Step By Step
TTITLE2=Inside It's Pouring
TTITLE3=The World Left Is Mine
TTITLE4=Country Song
TTITLE5=Your Heart Just Slipped My Mind
TTITLE6=More Whine
TTITLE7=The Man Who Makes Her Cry
TTITLE8=World Of My Own
TTITLE9=Follow The Signs
EXTD=
EXTT0=
EXTT1=
EXTT2=
EXTT3=
EXTT4=
EXTT5=
EXTT6=
EXTT7=
EXTT8=
EXTT9=
PLAYORDER=
